<svg xmlns="http://www.w3.org/2000/svg" viewBox="0 0 21.509 25.287"><defs><style>.cls-1{fill:#8cd8cf}</style></defs><g id="avatar" transform="translate(-36.073)"><g id="Groupe_16" data-name="Groupe 16" transform="translate(36.073)"><path id="Tracé_9" data-name="Tracé 9" class="cls-1" d="M142.455 13.625h.168a4.832 4.832 0 0 0 3.692-1.6c2.016-2.273 1.681-6.169 1.644-6.54a5.342 5.342 0 0 0-2.54-4.75A5.822 5.822 0 0 0 142.6 0h-.089a5.831 5.831 0 0 0-2.811.717 5.346 5.346 0 0 0-2.571 4.77c-.037.372-.372 4.268 1.644 6.54a4.813 4.813 0 0 0 3.682 1.598zm-3.933-8.007c0-.016.005-.031.005-.042.173-3.755 2.838-4.158 3.98-4.158h.063c1.414.031 3.817.607 3.98 4.158a.1.1 0 0 0 .005.042c.005.037.372 3.6-1.293 5.472a3.432 3.432 0 0 1-2.7 1.121h-.052a3.421 3.421 0 0 1-2.692-1.121c-1.657-1.863-1.301-5.44-1.295-5.471z" transform="translate(-131.792)"/><path id="Tracé_10" data-name="Tracé 10" class="cls-1" d="M57.581 265.756v-.016c0-.042-.005-.084-.005-.131-.031-1.037-.1-3.461-2.372-4.236l-.052-.016a15.11 15.11 0 0 1-4.346-1.979.707.707 0 1 0-.812 1.157 16.31 16.31 0 0 0 4.781 2.184c1.22.435 1.356 1.739 1.393 2.932a1.052 1.052 0 0 0 .005.131 9.5 9.5 0 0 1-.11 1.618 19.272 19.272 0 0 1-9.232 2.147 19.382 19.382 0 0 1-9.237-2.152 9 9 0 0 1-.11-1.618c0-.042.005-.084.005-.131.037-1.194.173-2.5 1.393-2.932a16.462 16.462 0 0 0 4.781-2.184.707.707 0 1 0-.812-1.157 14.944 14.944 0 0 1-4.346 1.979.361.361 0 0 0-.052.016c-2.273.78-2.341 3.2-2.372 4.236a1.052 1.052 0 0 1-.005.131v.016a8.03 8.03 0 0 0 .267 2.372.672.672 0 0 0 .272.33 19.807 19.807 0 0 0 10.222 2.5 19.867 19.867 0 0 0 10.222-2.5.7.7 0 0 0 .272-.33 8.425 8.425 0 0 0 .25-2.367z" transform="translate(-36.073 -245.669)"/></g></g></svg>