<svg xmlns="http://www.w3.org/2000/svg" viewBox="0 0 47.184 58.687"><defs><style>.cls-1{fill:none;stroke:#fff;stroke-linecap:round;stroke-linejoin:round;stroke-width:3px}.cls-2{fill:#fff}</style></defs><g id="DropLogo" transform="translate(-110 -117.205)"><path id="Tracé_1" data-name="Tracé 1" class="cls-1" d="M17.308-31.361S34.617-7.3 34.617 2.3A17.308 17.308 0 1 1 0 2.3c0-9.6 17.308-33.661 17.308-33.661z" transform="translate(111.5 154.703)"/><ellipse id="Ellipse_1" data-name="Ellipse 1" class="cls-2" cx="2.336" cy="4.21" rx="2.336" ry="4.21" transform="translate(119.545 155.708)"/><ellipse id="Ellipse_2" data-name="Ellipse 2" class="cls-2" cx="2.336" cy="4.21" rx="2.336" ry="4.21" transform="translate(133.558 155.708)"/><path id="Tracé_5" data-name="Tracé 5" class="cls-1" d="M14.806-31.361S26.647-14.9 26.647-8.33a11.925 11.925 0 0 1-9.524 11.668c-.344.074-.9-5.734-10.961-21.144a119.6 119.6 0 0 1 8.644-13.555z" transform="translate(129.037 150.066)"/></g></svg>