<svg xmlns="http://www.w3.org/2000/svg" viewBox="0 0 90.132 108.295"><path data-name="Soustraction 1" class="cls-1" d="M33.349 108.295a33.169 33.169 0 0 1-23.581-9.812A33.471 33.471 0 0 1 0 74.795c0-4.22 1.753-10.256 5.211-17.94a212.4 212.4 0 0 1 11.463-21.429C24.921 21.674 33.265 10.05 33.349 9.934l.023.03c.882 1.234 8.84 12.437 16.651 25.462a212.4 212.4 0 0 1 11.463 21.429c3.458 7.679 5.214 13.72 5.214 17.94a33.517 33.517 0 0 1-20.371 30.867 33.01 33.01 0 0 1-12.98 2.633zm13.651-36c-2.481 0-4.5 3.638-4.5 8.111s2.019 8.112 4.5 8.112 4.5-3.639 4.5-8.112-2.019-8.111-4.5-8.111zm-27 0c-2.481 0-4.5 3.638-4.5 8.111s2.019 8.112 4.5 8.112 4.5-3.639 4.5-8.112-2.019-8.111-4.5-8.111z"/><path data-name="Tracé 5" class="cls-1" d="M67.316 0s22.816 31.717 22.816 44.376a22.977 22.977 0 0 1-18.351 22.485c-.663.142-1.74-11.047-21.119-40.738A230.435 230.435 0 0 1 67.316 0z"/></svg>