<svg xmlns="http://www.w3.org/2000/svg" viewBox="0 0 84.321 94.07"><defs><style>.a{fill:#fff}</style></defs><path class="a" d="M68.295 59.156c-.44-8.681-4.752-19.827-12.81-33.127a197.268 197.268 0 0 0-5.39-8.39c.193-.327.39-.655.585-.977A148.025 148.025 0 0 1 62.058.632a1.714 1.714 0 0 1 2.658 0 147.846 147.846 0 0 1 11.379 16.026c5.459 9.01 8.226 16.461 8.226 22.146a20.833 20.833 0 0 1-4.568 13.039 21.052 21.052 0 0 1-5.077 4.583 20.787 20.787 0 0 1-6.376 2.73z"/><path class="a" d="M52.56 26.759A231.047 231.047 0 0 0 34.785 1.717a2.678 2.678 0 0 0-4.153 0 231.33 231.33 0 0 0-17.779 25.047C4.324 40.843 0 52.484 0 61.364a32.708 32.708 0 1 0 65.416 0c.001-8.886-4.324-20.528-12.856-34.605zM37.197 82.023a23.8 23.8 0 0 1-5.894.736c-12.22 0-22.161-9.235-22.161-20.587a26.316 26.316 0 0 1 2.149-9.516 1.4 1.4 0 0 1 1.6-.8 1.293 1.293 0 0 1 1.06 1.376 20.714 20.714 0 0 0-.126 2.224c0 12.353 9.954 22.7 23.154 24.062a1.329 1.329 0 0 1 1.222 1.172 1.29 1.29 0 0 1-1.004 1.333z"/></svg>