<svg xmlns="http://www.w3.org/2000/svg" viewBox="0 0 21.719 17.37"><path data-name="Tracé 14" d="M18.824 16.87H2.894A2.4 2.4 0 0 1 .5 14.476V4.765a2.4 2.4 0 0 1 2.394-2.394h3.25l.285-.96A1.181 1.181 0 0 1 7.59.5h6.538a1.2 1.2 0 0 1 1.163.915l.008.033.259.922h3.266a2.4 2.4 0 0 1 2.394 2.394v9.711a2.4 2.4 0 0 1-2.394 2.395zM2.894 3.17a1.6 1.6 0 0 0-1.6 1.6v9.711a1.6 1.6 0 0 0 1.6 1.6h15.93a1.6 1.6 0 0 0 1.6-1.6V4.765a1.6 1.6 0 0 0-1.6-1.6h-3.87l-.437-1.558a.4.4 0 0 0-.389-.312H7.59a.4.4 0 0 0-.389.313L6.74 3.169zm7.966 11.288a5.065 5.065 0 1 1 5.064-5.065 5.071 5.071 0 0 1-5.064 5.065zm0-9.332a4.267 4.267 0 1 0 4.266 4.267 4.272 4.272 0 0 0-4.266-4.267zm7.449-.476a.736.736 0 1 0 .736.736.736.736 0 0 0-.736-.736z" stroke="#333"/></svg>