<svg xmlns="http://www.w3.org/2000/svg" viewBox="0 0 26.658 27.03"><g id="herbal-spa-treatment-leaves" transform="translate(-6.104 .513)"><path id="Tracé_7" data-name="Tracé 7" class="cls-1" d="M8.139 5.688A9.78 9.78 0 0 0 12.915 11a5.12 5.12 0 0 0 .842.252 8.694 8.694 0 0 1 2.077-2.2 10.437 10.437 0 0 1 2.149-1.211 6.064 6.064 0 0 0-.669-.406c-.93-.486-1.937-.914-2.917-1.373.922.25 1.979.343 2.861.664a6.652 6.652 0 0 1 1.53.813 21.205 21.205 0 0 1 4.357-.887 11.908 11.908 0 0 0-5.655-4.289 26.378 26.378 0 0 0-6.5-1.076A11.08 11.08 0 0 1 7.052.041.3.3 0 0 0 6.627.4a54.675 54.675 0 0 0 1.512 5.288z"/><path id="Tracé_8" data-name="Tracé 8" class="cls-1" d="M214.875 202.465c-2.513 1.365-5.4 1.533-8.219 1.857a23.1 23.1 0 0 0-4.043.749 12.02 12.02 0 0 0-.839.287 9.892 9.892 0 0 0-2.359 1.275 8 8 0 0 0-1.759 1.8 13.776 13.776 0 0 0-1.748 3.591 20.482 20.482 0 0 0-1.1 7.268 13.976 13.976 0 0 0 .292 3.012 1.352 1.352 0 0 0 .276.648.317.317 0 0 0 .521-.311 10.384 10.384 0 0 1 .635-6.731 8.522 8.522 0 0 1 5.313-4.633c.63-.228 1.272-.428 1.926-.616a.1.1 0 0 1 .04-.005.132.132 0 0 1 .05.252c-.77.348-1.535.7-2.263 1.079-3.565 1.859-5.122 6.189-3.785 6.189a1.012 1.012 0 0 0 .383-.09c2.061-.853 4.511-.861 6.777-1.28a11.259 11.259 0 0 0 2.3-.648 11.789 11.789 0 0 0 6.187-6.4c.916-2.117 1.272-4.617 1.966-6.816a.387.387 0 0 0-.353-.523.365.365 0 0 0-.198.046z" transform="translate(-183.186 -197.037)"/></g></svg>